<?xml version="1.0" encoding="UTF-8"?><svg id="Layer_1" xmlns="http://www.w3.org/2000/svg" viewBox="0 0 544 80"><defs><style>.cls-1{fill:none;stroke:red;stroke-linecap:round;stroke-miterlimit:10;stroke-width:6px;}.cls-2{fill:red;}</style></defs><path class="cls-2" d="M55.59,28.34c0,15.15-12.25,27.4-27.4,27.4H7.92v20.16c0,2-1.56,3.56-3.56,3.56s-3.56-1.56-3.56-3.56V4.39C.79,2.39,2.35,.83,4.35,.83H28.19c15.15,0,27.4,12.25,27.4,27.51Zm-7.02,0c0-11.25-9.25-20.5-20.38-20.5H7.92V48.73H28.19c11.14,0,20.38-9.25,20.38-20.38Z"/><path class="cls-2" d="M115.52,79.13c-.56,.22-1,.33-1.45,.33-1.45,0-2.67-.78-3.23-2.12l-8.35-18.94H62.94l-8.24,18.94c-.78,1.78-2.9,2.56-4.68,1.78-1.78-.78-2.67-2.9-1.89-4.68L79.43,2.94c.67-1.34,1.89-2.12,3.34-2.12,1.34,0,2.67,.78,3.23,2.12l31.3,71.51c.78,1.78,0,3.9-1.78,4.68Zm-16.15-27.85L82.77,13.19l-16.71,38.09h33.31Z"/><path class="cls-2" d="M144.26,79.47c-16.04,0-24.39-11.14-24.39-22.17,0-2.01,1.56-3.56,3.56-3.56,1.89,0,3.56,1.56,3.56,3.56,0,7.24,5.35,15.04,17.27,15.04s17.38-7.8,17.38-15.04c0-9.69-6.91-12.14-18.05-15.37-9.8-2.9-22.05-6.35-22.05-20.5,0-10.25,7.8-20.61,22.72-20.61s22.83,10.36,22.83,20.61c0,2.01-1.56,3.56-3.56,3.56s-3.56-1.56-3.56-3.56c0-6.46-4.9-13.59-15.71-13.59s-15.59,7.13-15.59,13.59c0,8.35,6.35,10.58,16.93,13.7,10.25,3.01,23.17,6.68,23.17,22.17,0,11.03-8.47,22.17-24.51,22.17Z"/><path class="cls-2" d="M199.84,79.47c-16.04,0-24.39-11.14-24.39-22.17,0-2.01,1.56-3.56,3.56-3.56,1.89,0,3.56,1.56,3.56,3.56,0,7.24,5.35,15.04,17.27,15.04s17.38-7.8,17.38-15.04c0-9.69-6.91-12.14-18.05-15.37-9.8-2.9-22.05-6.35-22.05-20.5,0-10.25,7.8-20.61,22.72-20.61s22.83,10.36,22.83,20.61c0,2.01-1.56,3.56-3.56,3.56s-3.56-1.56-3.56-3.56c0-6.46-4.9-13.59-15.71-13.59s-15.59,7.13-15.59,13.59c0,8.35,6.35,10.58,16.93,13.7,10.25,3.01,23.17,6.68,23.17,22.17,0,11.03-8.47,22.17-24.51,22.17Z"/><path class="cls-2" d="M295.86,79.47c-1.45,0-2.78-.89-3.34-2.34l-18.16-48.57-18.27,48.57c-.56,1.45-1.89,2.34-3.45,2.34-1.45,0-2.78-1.11-3.23-2.56L227.8,5.39c-.56-1.89,.56-3.9,2.45-4.46,1.89-.56,3.79,.45,4.34,2.34l18.6,61.49,17.82-47.56c.56-1.34,1.78-2.23,3.34-2.23,1.45,0,2.78,.89,3.34,2.23l17.82,47.56L314.02,3.28c.56-1.89,2.56-2.9,4.46-2.34s2.9,2.56,2.34,4.46l-21.5,71.51c-.45,1.45-1.78,2.56-3.34,2.56h-.11Z"/><path class="cls-2" d="M359.13,79.47c-21.72,0-39.32-17.6-39.32-39.32S337.41,.83,359.13,.83s39.32,17.6,39.32,39.32-17.6,39.32-39.32,39.32Zm0-71.62c-17.82,0-32.19,14.48-32.19,32.3s14.37,32.19,32.19,32.19,32.19-14.48,32.19-32.19-14.37-32.3-32.19-32.3Z"/><path class="cls-2" d="M457.93,73.45c1.34,1.45,1.34,3.68-.11,5.01-.67,.67-1.56,1-2.45,1-1,0-1.89-.33-2.56-1.11l-21.83-22.61h-18.71v20.16c0,2-1.56,3.56-3.56,3.56s-3.56-1.56-3.56-3.56V4.39c0-2,1.56-3.56,3.56-3.56h23.84c15.15,0,27.4,12.25,27.4,27.51,0,12.59-8.47,23.17-20.05,26.4l18.04,18.71Zm-45.67-24.73h20.27c11.25,0,20.38-9.25,20.38-20.38s-9.13-20.5-20.38-20.5h-20.27V48.73Z"/><path class="cls-2" d="M488.23,79.47h-18.04c-2,0-3.56-1.56-3.56-3.56V4.39c0-2,1.56-3.56,3.56-3.56h18.04c21.72,0,39.32,17.6,39.32,39.32s-17.6,39.32-39.32,39.32Zm-14.48-7.13h14.48c17.82,0,32.3-14.48,32.3-32.19s-14.48-32.3-32.3-32.3h-14.48V72.34Z"/><path class="cls-2" d="M539.03,20.37c2.67,0,4.79,1.89,4.79,4.46s-2.12,4.57-4.79,4.57-4.79-1.89-4.79-4.57,2.12-4.46,4.79-4.46Zm0,30.74c2.67,0,4.79,1.89,4.79,4.46s-2.12,4.57-4.79,4.57-4.79-1.89-4.79-4.57,2.12-4.46,4.79-4.46Z"/><path class="cls-2" d="M342.14,32.26c0-2.67,1.89-4.79,4.46-4.79s4.57,2.12,4.57,4.79-1.89,4.79-4.57,4.79-4.46-2.12-4.46-4.79Zm24.74,0c0-2.67,1.89-4.79,4.46-4.79s4.57,2.12,4.57,4.79-1.89,4.79-4.57,4.79-4.46-2.12-4.46-4.79Z"/><path class="cls-1" d="M344.55,54.73s5.21-6.73,14.58-6.73,14.37,6.73,14.37,6.73"/></svg>